#!OML:ASF F:\VICON\USERDATA\INSTALL\Justin_Nancy\Justin_Nancy.ASF
:FULLY-SPECIFIED
:DEGREES
218
root 1.41374 17.3315 -21.7167 5.22058 -2.24873 5.47238
lowerback 8.84957 0.115866 -5.4249
upperback 0.778037 -0.396821 -0.377266
thorax -4.12349 -0.105393 2.70813
lowerneck -17.2924 -4.30293 -9.6192
upperneck 16.3215 -4.94703 7.74798
head 8.35835 -2.17166 3.58031
rclavicle 1.82882e-014 1.47101e-014
rhumerus -34.1125 -10.2553 -81.3644
rradius 36.5208
rwrist 3.57347
rhand -15.8055 12.8887
rfingers 7.12502
rthumb 10.3878 -16.8347
lclavicle 1.82882e-014 1.47101e-014
lhumerus -24.5104 10.6819 80.0216
lradius 28.6245
lwrist -10.1971
lhand -15.5057 22.7364
lfingers 7.12502
lthumb 10.677 52.4452
rfemur -37.423 -2.60241 16.7857
rtibia 57.5808
rfoot -10.1505 -10.4798
rtoes -0.0974587
lfemur -11.5457 -1.84957 -28.9399
ltibia 28.3857
lfoot -19.2713 -1.65937
ltoes 5.344
219
root 1.41728 17.3214 -21.5669 5.28425 -2.24094 5.57558
lowerback 8.83892 0.0525714 -5.38123
upperback 0.816335 -0.47839 -0.465018
thorax -4.07149 -0.149285 2.60169
lowerneck -17.6929 -4.26677 -9.54351
upperneck 16.3779 -4.88529 7.76167
head 8.4405 -2.12802 3.57817
rclavicle -1.02374e-014 3.97569e-015
rhumerus -33.9536 -10.4267 -81.3738
rradius 36.3001
rwrist 3.71776
rhand -14.9975 11.5177
rfingers 7.12502
rthumb 11.1672 -18.1651
lclavicle -1.02374e-014 3.97569e-015
lhumerus -23.85 9.4359 80.3585
lradius 28.6525
lwrist -7.506
lhand -17.0675 22.3924
lfingers 7.12502
lthumb 9.17017 52.173
rfemur -38.0099 -2.50535 16.7503
rtibia 55.2933
rfoot -9.53694 -10.8584
rtoes 0.557477
lfemur -10.9234 -1.68705 -29.1204
ltibia 28.0602
lfoot -19.5331 -1.63767
ltoes 4.91829
220
root 1.41929 17.3114 -21.4124 5.37459 -2.57137 5.68194
lowerback 8.78268 0.103643 -5.46599
upperback 0.731354 -0.420802 -0.521294
thorax -4.13368 -0.116598 2.58352
lowerneck -17.8226 -4.20736 -9.52782
upperneck 16.5475 -4.80273 7.75338
head 8.51215 -2.08673 3.58489
rclavicle 9.44227e-016 -8.34896e-015
rhumerus -34.1158 -10.8177 -81.1922
rradius 36.0199
rwrist 3.89649
rhand -14.5495 10.4408
rfingers 7.12502
rthumb 11.5993 -19.2181
lclavicle 9.44227e-016 -8.34896e-015
lhumerus -23.5739 8.05427 80.6831
lradius 29.3057
lwrist -5.12226
lhand -16.9485 25.2844
lfingers 7.12502
lthumb 9.28499 55.0599
rfemur -38.6008 -2.22031 16.6859
rtibia 52.8769
rfoot -8.9503 -10.9489
rtoes 1.64268
lfemur -10.2417 -1.41458 -29.3277
ltibia 27.6762
lfoot -19.8345 -1.51311
ltoes 4.47491
221
root 1.41892 17.3045 -21.2576 5.60973 -2.84435 5.78423
lowerback 8.41418 0.121976 -5.70629
upperback 0.691748 -0.392865 -0.447615
thorax -3.96913 -0.101766 2.78962
lowerneck -17.7557 -4.17501 -9.60132
upperneck 16.3757 -4.73287 7.7404
head 8.43731 -2.06074 3.60007
rclavicle -5.41688e-015 -4.77083e-015
rhumerus -34.0848 -11.1463 -80.8744
rradius 35.6151
rwrist 4.1359
rhand -14.9998 12.2552
rfingers 7.12502
rthumb 11.165 -17.4277
lclavicle -5.41688e-015 -4.77083e-015
lhumerus -23.1311 7.69764 80.931
lradius 30.0992
lwrist -5.3325
lhand -15.798 28.2204
lfingers 7.12502
lthumb 10.395 57.9435
rfemur -39.2082 -1.88808 16.5683
rtibia 50.3781
rfoot -8.59837 -10.8183
rtoes 3.19807
lfemur -9.6677 -1.24132 -29.5237
ltibia 27.2182
lfoot -20.1326 -1.29293
ltoes 3.94489
222
root 1.41874 17.2941 -21.1018 5.64702 -2.64559 5.96349
lowerback 8.39501 -0.0301183 -5.82949
upperback 0.664346 -0.606168 -0.449237
thorax -3.9666 -0.204753 2.8817
lowerneck -17.773 -4.16453 -9.58837
upperneck 16.2869 -4.69874 7.65819
head 8.40481 -2.05148 3.57281
rclavicle 1.19768e-014 7.55382e-015
rhumerus -34.1644 -11.2164 -80.7492
rradius 35.3893
rwrist 4.3238
rhand -15.4827 13.5868
rfingers 7.12502
rthumb 10.6992 -16.1208
lclavicle 1.19768e-014 7.55382e-015
lhumerus -22.7107 7.60255 80.9041
lradius 30.8074
lwrist -6.88605
lhand -13.8537 29.8697
lfingers 7.12502
lthumb 12.2702 59.4898
rfemur -39.4606 -1.86532 16.3757
rtibia 47.8097
rfoot -7.94087 -10.8853
rtoes 3.19056
lfemur -8.81338 -1.19812 -29.7262
ltibia 26.6985
lfoot -20.4199 -1.41585
ltoes 4.03767
223
root 1.41983 17.282 -20.9431 5.54176 -2.43248 6.15136
lowerback 8.63412 -0.161564 -5.9116
upperback 0.604404 -0.809063 -0.478407
thorax -4.1439 -0.297497 2.92413
lowerneck -17.7369 -4.11106 -9.61425
upperneck 16.2464 -4.62638 7.69118
head 8.37941 -2.01634 3.59773
rclavicle -1.2921e-015 2.38542e-015
rhumerus -34.369 -11.256 -80.6279
rradius 35.2505
rwrist 4.39293
rhand -15.4541 13.2157
rfingers 7.12502
rthumb 10.7267 -16.4904
lclavicle -1.2921e-015 2.38542e-015
lhumerus -22.2552 7.39352 80.8736
lradius 31.1447
lwrist -8.05368
lhand -13.1765 29.1921
lfingers 7.12502
lthumb 12.9231 58.7719
rfemur -39.4658 -1.72981 16.0932
rtibia 45.1737
rfoot -7.25437 -10.8854
rtoes 2.67843
lfemur -7.75921 -1.15147 -29.9548
ltibia 26.0893
lfoot -20.6013 -1.39986
ltoes 3.86831
224
root 1.41955 17.2716 -20.7823 5.55369 -2.32879 6.26171
lowerback 8.65812 -0.228813 -6.04185
upperback 0.576869 -0.911487 -0.425908
thorax -4.17383 -0.343836 3.06479
lowerneck -17.8145 -4.11403 -9.63155
upperneck 16.2112 -4.60967 7.65713
head 8.37927 -2.01123 3.59005
rclavicle -1.50082e-014 1.63003e-014
rhumerus -34.4766 -11.4647 -80.3392
rradius 35.101
rwrist 4.50154
rhand -15.5455 12.9874
rfingers 7.12502
rthumb 10.6386 -16.7233
lclavicle -1.50082e-014 1.63003e-014
lhumerus -21.8632 7.02334 81.0743
lradius 31.3855
lwrist -8.0428
lhand -13.5828 28.6251
lfingers 7.12502
lthumb 12.5313 58.2293
rfemur -39.4622 -1.43501 15.8127
rtibia 42.4673
rfoot -6.54733 -10.7192
rtoes 2.94803
lfemur -6.85349 -1.13523 -30.0958
ltibia 25.4555
lfoot -20.6257 -1.40942
ltoes 3.01242
225
root 1.41088 17.2714 -20.6194 5.61088 -2.20374 6.22402
lowerback 8.52055 -0.338514 -6.12419
upperback 0.576962 -1.04858 -0.277166
thorax -4.07903 -0.411853 3.28027
lowerneck -17.8004 -4.12953 -9.75543
upperneck 16.1775 -4.57624 7.55442
head 8.36295 -2.01371 3.5791
rclavicle -2.48481e-015 1.23246e-014
rhumerus -34.5922 -11.4109 -80.0873
rradius 34.9958
rwrist 4.55333
rhand -15.5584 13.0578
rfingers 7.12502
rthumb 10.6262 -16.6535
lclavicle -2.48481e-015 1.23246e-014
lhumerus -21.6764 6.53723 81.3753
lradius 31.8255
lwrist -6.85348
lhand -14.0971 29.0972
lfingers 7.12502
lthumb 12.0355 58.7311
rfemur -39.3366 -1.03886 15.6537
rtibia 39.7061
rfoot -6.06913 -10.5302
rtoes 3.50867
lfemur -5.98583 -1.05842 -30.0388
ltibia 24.8211
lfoot -20.7313 -1.43714
ltoes 1.92045
